<svg width="800" height="800" viewBox="-400, -400,800,800"><g><path d="M0 -400 50 -300 -50 -300 0 -400"></path><path d="M-100 -200 -50 -300 0 -200 -100 -200"></path><path d="M100 -200 50 -300 0 -200 100 -200"></path><path d="M200 0 100 0 150 -100 200 0"></path><path d="M100 -200 150 -100 50 -100 100 -200"></path><path d="M0 0 100 0 50 -100 0 0"></path><path d="M-200 0 -100 0 -150 -100 -200 0"></path><path d="M-100 -200 -150 -100 -50 -100 -100 -200"></path><path d="M0 0 -100 0 -50 -100 0 0"></path><path d="M-400 400 -350 300 -300 400 -400 400"></path><path d="M-200 400 -300 400 -250 300 -200 400"></path><path d="M-300 200 -350 300 -250 300 -300 200"></path><path d="M-200 0 -150 100 -250 100 -200 0"></path><path d="M-300 200 -250 100 -200 200 -300 200"></path><path d="M-100 200 -150 100 -200 200 -100 200"></path><path d="M0 400 -50 300 -100 400 0 400"></path><path d="M-200 400 -100 400 -150 300 -200 400"></path><path d="M-100 200 -50 300 -150 300 -100 200"></path><path d="M400 400 350 300 300 400 400 400"></path><path d="M200 400 300 400 250 300 200 400"></path><path d="M300 200 350 300 250 300 300 200"></path><path d="M200 0 150 100 250 100 200 0"></path><path d="M300 200 250 100 200 200 300 200"></path><path d="M100 200 150 100 200 200 100 200"></path><path d="M0 400 50 300 100 400 0 400"></path><path d="M200 400 100 400 150 300 200 400"></path><path d="M100 200 50 300 150 300 100 200"></path></g></svg>